<svg preserveAspectRatio="none" xmlns="http://www.w3.org/2000/svg" width="1000" height="1000" style="">
  <rect id="backgroundrect" width="100%" height="100%" x="0" y="0" fill="none" stroke="none" />
  <defs>
    <filter id="blur" x="-500" y="-500" width="2000" height="2000" filterUnits="userSpaceOnUse">
      <feGaussianBlur in="SourceGraphic" stdDeviation="60" />
    </filter>
    <filter id="grain" x="-500" y="-500" width="2000" height="2000" filterUnits="userSpaceOnUse">&gt;
      <feFlood flood-color="#ffffff" result="neutral-gray" />
      <feTurbulence in="neutral-gray" type="fractalNoise" baseFrequency="2.5" numOctaves="100" stitchTiles="stitch" result="noise" />
      <feColorMatrix in="noise" type="saturate" values="0" result="destaturatedNoise" />
      <feComponentTransfer in="desaturatedNoise" result="theNoise">
        <feFuncA type="table" tableValues="0 0 0.1 0" />
      </feComponentTransfer>
      <feBlend in="SourceGraphic" in2="theNoise" mode="soft-light" result="noisy-image" />
    </filter>} <radialGradient id="radial-gradient" cx="50%" cy="50%" r="50%" fx="30%" fy="43%">
      <stop offset="0%" stop-color="#656e8b" />
      <stop offset="100%" stop-color="rgba(120,101,139,0.2)" />
    </radialGradient>
    <filter id="noise">
      <feTurbulence type="fractalNoise" baseFrequency="30" result="noisy" />
      <feColorMatrix type="saturate" values="0" />
      <feBlend in="SourceGraphic" in2="noisy" mode="multiply" />
    </filter>
    <clipPath id="shape">
      <path fill="currentColor" d="M420,357.5Q374,465,257.5,452Q141,439,115.5,344.5Q90,250,121.5,166.5Q153,83,262.5,60.5Q372,38,419,144Q466,250,420,357.5Z" id="svg_3" />
    </clipPath>
  </defs>
  <g class="currentLayer" style="">
    <title>Layer 1</title>
    <rect x="0" y="0" width="100%" height="100%" fill="#1a1a1a" id="svg_4" />
    <g filter="url(#grain)" id="svg_5">
      <g filter="url(#blur)" id="svg_6">
        <g opacity="0.1" id="svg_7">
          <g id="svg_1">
            <svg xmlns="http://www.w3.org/2000/svg" width="800" height="800" viewBox="0 0 500 500" x="102.48042297363281" y="506.3471984863281" id="svg_8">
              <path fill="url(#radial-gradient)" d="M420,357.5Q374,465,257.5,452Q141,439,115.5,344.5Q90,250,121.5,166.5Q153,83,262.5,60.5Q372,38,419,144Q466,250,420,357.5Z" id="svg_9" />
            </svg>
          </g>
        </g>
      </g>
    </g>
  </g>
</svg>